<?xml version="1.0" encoding="UTF-8"?>
<svg id="Calque_1" data-name="Calque 1" xmlns="http://www.w3.org/2000/svg" version="1.1" viewBox="0 0 100 100">
  <defs>
    <style>
      .cls-1 {
        fill: #006837;
      }

      .cls-1, .cls-2, .cls-3 {
        stroke: #fff;
        stroke-linecap: round;
        stroke-linejoin: round;
        stroke-width: 2.5px;
      }

      .cls-2 {
        fill: none;
      }

      .cls-4 {
        fill: #fff;
        stroke-width: 0px;
      }

      .cls-3 {
        fill: #22b573;
      }
    </style>
  </defs>
  <g>
    <path class="cls-4" d="M74,42.9l-21.5-12.9c-1.3-.8-2.8-1.2-4.3-1.2s-3,.4-4.3,1.2l-21.5,12.9c-2.5,1.5-4.1,4.3-4.1,7.2v25.7c0,3,1.6,5.7,4.1,7.2l21.5,12.9c1.3.8,2.8,1.2,4.3,1.2s3-.4,4.3-1.2l21.5-12.9c2.5-1.5,4.1-4.3,4.1-7.2v-25.7c0-3-1.6-5.7-4.1-7.2ZM47.5,94.5c-.8,0-1.6-.4-2.3-.8l-21.5-12.9c-1.8-1.1-2.9-3-2.9-5.1v-25.7c0-.8.2-1.6.5-2.3l26.2,15.7v31ZM22,46.6c.4-.6,1-1.1,1.7-1.5l21.5-12.9c.9-.6,2-.8,3-.8s2.1.3,3,.8l21.5,12.9c.7.4,1.2.9,1.7,1.5l-26.2,15.7-26.2-15.7ZM75.6,75.8c0,2.1-1.1,4-2.9,5.1l-21.5,12.9c-.7.4-1.5.7-2.3.8v-31l26.2-15.7c.3.7.5,1.5.5,2.3v25.7h0Z"/>
    <path class="cls-4" d="M65.1,44.2c-1.3-1-3.5-1-4.8,0-1.4.9-1.4,2.5,0,3.5,1.3,1,3.5,1,4.8,0,1.4-.9,1.4-2.5,0-3.5Z"/>
    <path class="cls-4" d="M36.2,43.9c-1.3-1-3.5-1-4.8,0-1.4.9-1.4,2.5,0,3.5,1.3,1,3.5,1,4.8,0,1.4-.9,1.4-2.5,0-3.5Z"/>
    <path class="cls-4" d="M50.5,44.2c-1.3-.9-3.4-1-4.7,0-1.3.9-1.3,2.4,0,3.3,1.3.9,3.4,1,4.7,0,1.3-.9,1.3-2.4,0-3.3Z"/>
    <path class="cls-4" d="M26,61.9c1.5.8,2.7.3,2.7-1.2s-1.2-3.4-2.7-4.2c-1.5-.8-2.7-.3-2.7,1.2s1.2,3.4,2.7,4.2Z"/>
    <path class="cls-4" d="M41,70.1c1.5.8,2.7.3,2.7-1.2s-1.2-3.4-2.7-4.2c-1.5-.8-2.7-.3-2.7,1.2s1.2,3.3,2.7,4.2Z"/>
    <path class="cls-4" d="M26,77c1.5.8,2.7.3,2.7-1.2s-1.2-3.4-2.7-4.2c-1.5-.8-2.7-.3-2.7,1.2s1.2,3.4,2.7,4.2Z"/>
    <path class="cls-4" d="M41,85.2c1.5.8,2.7.3,2.7-1.2s-1.2-3.4-2.7-4.2c-1.5-.8-2.7-.3-2.7,1.2s1.2,3.4,2.7,4.2Z"/>
    <path class="cls-4" d="M62.4,66.5c-2.4,1.3-4.3,4.3-4.3,6.7s1.9,3.3,4.3,2c2.4-1.3,4.3-4.3,4.3-6.7s-1.9-3.3-4.3-2Z"/>
  </g>
  <g>
    <path class="cls-3" d="M47.6,26.5C44.1,8.6,60.5.1,79.9,11.1c1.4.8,2,2.4,1.5,3.9-4.5,13.1-12.7,18.8-31.4,14-1.2-.3-2.1-1.3-2.4-2.5Z"/>
    <path class="cls-2" d="M49.1,27.6c5.3-8.6,6.5-9.8,18-11.1"/>
  </g>
  <g>
    <path class="cls-1" d="M49.4,28.9c-20.4-1.6-28.2-9.8-28.2-23.1,0-1.5,1.2-2.8,2.8-3.1,23.2-3.8,36.8,9.2,27.1,24.3-.7,1-.4,2-1.7,1.9Z"/>
    <path class="cls-2" d="M35,11.7c11,4.8,11.9,6.3,14.2,15.8"/>
  </g>
</svg>